<mxfile host="65bd71144e">
    <diagram id="eYp32rkmpS_6zZbo1MFD" name="Page-1">
        <mxGraphModel dx="1035" dy="619" grid="1" gridSize="10" guides="1" tooltips="1" connect="1" arrows="1" fold="1" page="1" pageScale="1" pageWidth="1920" pageHeight="1200" math="0" shadow="0">
            <root>
                <mxCell id="0"/>
                <mxCell id="1" parent="0"/>
                <mxCell id="10" value="" style="edgeStyle=none;html=1;" edge="1" parent="1" source="2" target="9">
                    <mxGeometry relative="1" as="geometry"/>
                </mxCell>
                <mxCell id="2" value="开始&amp;lt;陪护证号&amp;gt;" style="html=1;dashed=0;whitespace=wrap;shape=mxgraph.dfd.start;fillColor=#ffe6cc;strokeColor=#d79b00;" vertex="1" parent="1">
                    <mxGeometry x="543" y="90" width="150" height="30" as="geometry"/>
                </mxCell>
                <mxCell id="12" value="" style="edgeStyle=none;html=1;" edge="1" parent="1" source="9" target="11">
                    <mxGeometry relative="1" as="geometry"/>
                </mxCell>
                <mxCell id="9" value="查询陪护证实体" style="whiteSpace=wrap;html=1;dashed=0;strokeColor=#d79b00;fillColor=#ffe6cc;" vertex="1" parent="1">
                    <mxGeometry x="558" y="200" width="120" height="60" as="geometry"/>
                </mxCell>
                <mxCell id="14" value="N" style="edgeStyle=none;html=1;" edge="1" parent="1" source="11" target="13">
                    <mxGeometry relative="1" as="geometry"/>
                </mxCell>
                <mxCell id="55" value="Y" style="edgeStyle=orthogonalEdgeStyle;html=1;" edge="1" parent="1" source="11" target="26">
                    <mxGeometry relative="1" as="geometry"/>
                </mxCell>
                <mxCell id="11" value="陪护证实体存在？" style="rhombus;whiteSpace=wrap;html=1;dashed=0;strokeColor=#d79b00;fillColor=#ffe6cc;" vertex="1" parent="1">
                    <mxGeometry x="530.5" y="340" width="175" height="80" as="geometry"/>
                </mxCell>
                <mxCell id="13" value="异常&amp;lt;无有效陪护证&amp;gt;" style="html=1;dashed=0;whitespace=wrap;shape=mxgraph.dfd.start;fillColor=#f8cecc;strokeColor=#b85450;" vertex="1" parent="1">
                    <mxGeometry x="278" y="360" width="150" height="30" as="geometry"/>
                </mxCell>
                <mxCell id="29" value="" style="edgeStyle=none;html=1;" edge="1" parent="1" source="26" target="28">
                    <mxGeometry relative="1" as="geometry"/>
                </mxCell>
                <mxCell id="26" value="查询关联的住院实体" style="whiteSpace=wrap;html=1;dashed=0;strokeColor=#d79b00;fillColor=#ffe6cc;" vertex="1" parent="1">
                    <mxGeometry x="558" y="500" width="120" height="60" as="geometry"/>
                </mxCell>
                <mxCell id="32" value="N" style="edgeStyle=orthogonalEdgeStyle;html=1;" edge="1" parent="1" source="28" target="31">
                    <mxGeometry relative="1" as="geometry"/>
                </mxCell>
                <mxCell id="38" value="Y 强陪护" style="edgeStyle=orthogonalEdgeStyle;html=1;" edge="1" parent="1" source="28" target="37">
                    <mxGeometry relative="1" as="geometry"/>
                </mxCell>
                <mxCell id="28" value="存在与之关联的住院实体？" style="rhombus;whiteSpace=wrap;html=1;dashed=0;strokeColor=#d79b00;fillColor=#ffe6cc;" vertex="1" parent="1">
                    <mxGeometry x="778" y="490" width="175" height="80" as="geometry"/>
                </mxCell>
                <mxCell id="34" value="" style="edgeStyle=orthogonalEdgeStyle;html=1;" edge="1" parent="1" source="31" target="33">
                    <mxGeometry relative="1" as="geometry"/>
                </mxCell>
                <mxCell id="31" value="查询关联的住院证" style="whiteSpace=wrap;html=1;dashed=0;strokeColor=#d79b00;fillColor=#ffe6cc;" vertex="1" parent="1">
                    <mxGeometry x="1048" y="500" width="120" height="60" as="geometry"/>
                </mxCell>
                <mxCell id="36" value="N" style="edgeStyle=orthogonalEdgeStyle;html=1;" edge="1" parent="1" source="33" target="35">
                    <mxGeometry relative="1" as="geometry"/>
                </mxCell>
                <mxCell id="41" value="Y 弱陪护" style="edgeStyle=orthogonalEdgeStyle;html=1;" edge="1" parent="1" source="33" target="40">
                    <mxGeometry relative="1" as="geometry"/>
                </mxCell>
                <mxCell id="33" value="存在与之关联的住院证？" style="rhombus;whiteSpace=wrap;html=1;dashed=0;strokeColor=#d79b00;fillColor=#ffe6cc;" vertex="1" parent="1">
                    <mxGeometry x="1268" y="490" width="175" height="80" as="geometry"/>
                </mxCell>
                <mxCell id="35" value="注销&amp;lt;关联住院证已被删除&amp;gt;" style="html=1;dashed=0;whitespace=wrap;shape=mxgraph.dfd.start;fillColor=#d5e8d4;strokeColor=#82b366;" vertex="1" parent="1">
                    <mxGeometry x="1548" y="515" width="150" height="30" as="geometry"/>
                </mxCell>
                <mxCell id="119" value="" style="edgeStyle=orthogonalEdgeStyle;html=1;" edge="1" parent="1" source="37" target="118">
                    <mxGeometry relative="1" as="geometry"/>
                </mxCell>
                <mxCell id="37" value="筛选在院记录" style="whiteSpace=wrap;html=1;dashed=0;strokeColor=#d79b00;fillColor=#ffe6cc;" vertex="1" parent="1">
                    <mxGeometry x="805.5" y="650" width="120" height="60" as="geometry"/>
                </mxCell>
                <mxCell id="43" value="" style="edgeStyle=orthogonalEdgeStyle;html=1;" edge="1" parent="1" source="40" target="42">
                    <mxGeometry relative="1" as="geometry"/>
                </mxCell>
                <mxCell id="40" value="查询患者所有住院证" style="whiteSpace=wrap;html=1;dashed=0;strokeColor=#d79b00;fillColor=#ffe6cc;" vertex="1" parent="1">
                    <mxGeometry x="1295.5" y="650" width="120" height="60" as="geometry"/>
                </mxCell>
                <mxCell id="45" value="" style="edgeStyle=orthogonalEdgeStyle;html=1;" edge="1" parent="1" source="42" target="44">
                    <mxGeometry relative="1" as="geometry"/>
                </mxCell>
                <mxCell id="42" value="将住院证按序号逆序" style="whiteSpace=wrap;html=1;dashed=0;strokeColor=#d79b00;fillColor=#ffe6cc;" vertex="1" parent="1">
                    <mxGeometry x="1295.5" y="790" width="120" height="60" as="geometry"/>
                </mxCell>
                <mxCell id="47" value="N" style="edgeStyle=orthogonalEdgeStyle;html=1;" edge="1" parent="1" source="44" target="46">
                    <mxGeometry relative="1" as="geometry"/>
                </mxCell>
                <mxCell id="49" value="Y" style="edgeStyle=orthogonalEdgeStyle;html=1;" edge="1" parent="1" source="44" target="48">
                    <mxGeometry relative="1" as="geometry"/>
                </mxCell>
                <mxCell id="44" value="陪护住院证是最新的住院证？" style="rhombus;whiteSpace=wrap;html=1;dashed=0;strokeColor=#d79b00;fillColor=#ffe6cc;" vertex="1" parent="1">
                    <mxGeometry x="1268" y="930" width="175" height="80" as="geometry"/>
                </mxCell>
                <mxCell id="46" value="注销&amp;lt;患者未入院且开立了新住院证&amp;gt;" style="html=1;dashed=0;whitespace=wrap;shape=mxgraph.dfd.start;fillColor=#d5e8d4;strokeColor=#82b366;" vertex="1" parent="1">
                    <mxGeometry x="1548" y="955" width="210" height="30" as="geometry"/>
                </mxCell>
                <mxCell id="51" value="Y" style="edgeStyle=orthogonalEdgeStyle;html=1;" edge="1" parent="1" source="48" target="50">
                    <mxGeometry relative="1" as="geometry"/>
                </mxCell>
                <mxCell id="58" value="N" style="edgeStyle=orthogonalEdgeStyle;html=1;" edge="1" parent="1" source="48" target="57">
                    <mxGeometry relative="1" as="geometry"/>
                </mxCell>
                <mxCell id="48" value="住院证已作废？" style="rhombus;whiteSpace=wrap;html=1;dashed=0;strokeColor=#d79b00;fillColor=#ffe6cc;" vertex="1" parent="1">
                    <mxGeometry x="1268" y="1090" width="175" height="80" as="geometry"/>
                </mxCell>
                <mxCell id="50" value="注销&amp;lt;关联的住院证已作废&amp;gt;" style="html=1;dashed=0;whitespace=wrap;shape=mxgraph.dfd.start;fillColor=#d5e8d4;strokeColor=#82b366;" vertex="1" parent="1">
                    <mxGeometry x="1548" y="1115" width="210" height="30" as="geometry"/>
                </mxCell>
                <mxCell id="132" value="" style="edgeStyle=orthogonalEdgeStyle;html=1;" edge="1" parent="1" source="57" target="59">
                    <mxGeometry relative="1" as="geometry"/>
                </mxCell>
                <mxCell id="57" value="查询陪护证历史状态" style="whiteSpace=wrap;html=1;dashed=0;strokeColor=#d79b00;fillColor=#ffe6cc;" vertex="1" parent="1">
                    <mxGeometry x="1048" y="1100" width="120" height="60" as="geometry"/>
                </mxCell>
                <mxCell id="62" value="N" style="edgeStyle=orthogonalEdgeStyle;html=1;" edge="1" parent="1" source="59" target="61">
                    <mxGeometry relative="1" as="geometry"/>
                </mxCell>
                <mxCell id="133" value="Y" style="edgeStyle=orthogonalEdgeStyle;html=1;exitX=0;exitY=0.5;exitDx=0;exitDy=0;entryX=0.5;entryY=0;entryDx=0;entryDy=0;" edge="1" parent="1" source="59" target="69">
                    <mxGeometry relative="1" as="geometry"/>
                </mxCell>
                <mxCell id="59" value="历史状态为空？" style="rhombus;whiteSpace=wrap;html=1;dashed=0;strokeColor=#d79b00;fillColor=#ffe6cc;" vertex="1" parent="1">
                    <mxGeometry x="1020" y="1248" width="175" height="80" as="geometry"/>
                </mxCell>
                <mxCell id="64" value="注销" style="edgeStyle=orthogonalEdgeStyle;html=1;" edge="1" parent="1" source="61" target="63">
                    <mxGeometry relative="1" as="geometry"/>
                </mxCell>
                <mxCell id="68" value="" style="edgeStyle=orthogonalEdgeStyle;html=1;" edge="1" parent="1" source="61" target="67">
                    <mxGeometry relative="1" as="geometry"/>
                </mxCell>
                <mxCell id="70" value="" style="edgeStyle=orthogonalEdgeStyle;html=1;" edge="1" parent="1" source="61" target="69">
                    <mxGeometry relative="1" as="geometry"/>
                </mxCell>
                <mxCell id="61" value="最近状态" style="rhombus;whiteSpace=wrap;html=1;dashed=0;strokeColor=#d79b00;fillColor=#ffe6cc;" vertex="1" parent="1">
                    <mxGeometry x="1020" y="1408" width="175" height="80" as="geometry"/>
                </mxCell>
                <mxCell id="63" value="注销&amp;lt;陪护证已注销&amp;gt;" style="html=1;dashed=0;whitespace=wrap;shape=mxgraph.dfd.start;fillColor=#d5e8d4;strokeColor=#82b366;" vertex="1" parent="1">
                    <mxGeometry x="1300" y="1433" width="210" height="30" as="geometry"/>
                </mxCell>
                <mxCell id="78" value="" style="edgeStyle=orthogonalEdgeStyle;html=1;" edge="1" parent="1" source="67" target="76">
                    <mxGeometry relative="1" as="geometry"/>
                </mxCell>
                <mxCell id="67" value="查询陪护2天内的核酸结果" style="whiteSpace=wrap;html=1;dashed=0;strokeColor=#d79b00;fillColor=#ffe6cc;" vertex="1" parent="1">
                    <mxGeometry x="1026.25" y="1568" width="162.5" height="60" as="geometry"/>
                </mxCell>
                <mxCell id="77" value="" style="edgeStyle=orthogonalEdgeStyle;html=1;" edge="1" parent="1" source="69" target="76">
                    <mxGeometry relative="1" as="geometry"/>
                </mxCell>
                <mxCell id="69" value="查询陪护14天内的核酸结果" style="whiteSpace=wrap;html=1;dashed=0;strokeColor=#d79b00;fillColor=#ffe6cc;" vertex="1" parent="1">
                    <mxGeometry x="760" y="1418" width="162.5" height="60" as="geometry"/>
                </mxCell>
                <mxCell id="80" value="Y" style="edgeStyle=orthogonalEdgeStyle;html=1;" edge="1" parent="1" source="76" target="79">
                    <mxGeometry relative="1" as="geometry"/>
                </mxCell>
                <mxCell id="86" value="N" style="edgeStyle=orthogonalEdgeStyle;html=1;" edge="1" parent="1" source="76" target="93">
                    <mxGeometry relative="1" as="geometry"/>
                </mxCell>
                <mxCell id="76" value="核酸结果存在？" style="rhombus;whiteSpace=wrap;html=1;dashed=0;strokeColor=#d79b00;fillColor=#ffe6cc;" vertex="1" parent="1">
                    <mxGeometry x="753.75" y="1558" width="175" height="80" as="geometry"/>
                </mxCell>
                <mxCell id="83" value="阴性" style="edgeStyle=orthogonalEdgeStyle;html=1;" edge="1" parent="1" source="79" target="82">
                    <mxGeometry relative="1" as="geometry"/>
                </mxCell>
                <mxCell id="84" value="阳性" style="edgeStyle=orthogonalEdgeStyle;html=1;" edge="1" parent="1" source="79" target="81">
                    <mxGeometry relative="1" as="geometry"/>
                </mxCell>
                <mxCell id="79" value="核酸结果" style="rhombus;whiteSpace=wrap;html=1;dashed=0;strokeColor=#d79b00;fillColor=#ffe6cc;" vertex="1" parent="1">
                    <mxGeometry x="480" y="1558" width="175" height="80" as="geometry"/>
                </mxCell>
                <mxCell id="81" value="其他&amp;lt;核酸结果为阳性&amp;gt;" style="html=1;dashed=0;whitespace=wrap;shape=mxgraph.dfd.start;fillColor=#d5e8d4;strokeColor=#82b366;" vertex="1" parent="1">
                    <mxGeometry x="180" y="1583" width="210" height="30" as="geometry"/>
                </mxCell>
                <mxCell id="82" value="生效中&amp;lt;核酸结果为阴性&amp;gt;" style="html=1;dashed=0;whitespace=wrap;shape=mxgraph.dfd.start;fillColor=#d5e8d4;strokeColor=#82b366;" vertex="1" parent="1">
                    <mxGeometry x="462.5" y="1743" width="210" height="30" as="geometry"/>
                </mxCell>
                <mxCell id="88" value="Y" style="edgeStyle=orthogonalEdgeStyle;html=1;" edge="1" parent="1" source="85" target="87">
                    <mxGeometry relative="1" as="geometry"/>
                </mxCell>
                <mxCell id="98" value="N" style="edgeStyle=orthogonalEdgeStyle;html=1;" edge="1" parent="1" source="85" target="96">
                    <mxGeometry relative="1" as="geometry"/>
                </mxCell>
                <mxCell id="85" value="划价记录存在？" style="rhombus;whiteSpace=wrap;html=1;dashed=0;strokeColor=#d79b00;fillColor=#ffe6cc;" vertex="1" parent="1">
                    <mxGeometry x="753.75" y="1883" width="175" height="80" as="geometry"/>
                </mxCell>
                <mxCell id="87" value="等待院内核酸结果&amp;lt;有核酸划价记录&amp;gt;" style="html=1;dashed=0;whitespace=wrap;shape=mxgraph.dfd.start;fillColor=#d5e8d4;strokeColor=#82b366;" vertex="1" parent="1">
                    <mxGeometry x="1002.5" y="1908" width="210" height="30" as="geometry"/>
                </mxCell>
                <mxCell id="92" value="Y" style="edgeStyle=orthogonalEdgeStyle;html=1;" edge="1" parent="1" source="89" target="91">
                    <mxGeometry relative="1" as="geometry"/>
                </mxCell>
                <mxCell id="101" value="N" style="edgeStyle=orthogonalEdgeStyle;html=1;" edge="1" parent="1" source="89" target="100">
                    <mxGeometry relative="1" as="geometry"/>
                </mxCell>
                <mxCell id="89" value="附件存在？" style="rhombus;whiteSpace=wrap;html=1;dashed=0;strokeColor=#d79b00;fillColor=#ffe6cc;" vertex="1" parent="1">
                    <mxGeometry x="753.75" y="2213" width="175" height="80" as="geometry"/>
                </mxCell>
                <mxCell id="91" value="等待院外核酸结果审核&amp;lt;有未审核附件&amp;gt;" style="html=1;dashed=0;whitespace=wrap;shape=mxgraph.dfd.start;fillColor=#d5e8d4;strokeColor=#82b366;" vertex="1" parent="1">
                    <mxGeometry x="1002.5" y="2238" width="210" height="30" as="geometry"/>
                </mxCell>
                <mxCell id="94" value="" style="edgeStyle=orthogonalEdgeStyle;html=1;" edge="1" parent="1" source="93" target="85">
                    <mxGeometry relative="1" as="geometry"/>
                </mxCell>
                <mxCell id="93" value="查询陪护7天内核酸划价记录" style="whiteSpace=wrap;html=1;dashed=0;strokeColor=#d79b00;fillColor=#ffe6cc;" vertex="1" parent="1">
                    <mxGeometry x="760" y="1728" width="162.5" height="60" as="geometry"/>
                </mxCell>
                <mxCell id="99" value="" style="edgeStyle=orthogonalEdgeStyle;html=1;" edge="1" parent="1" source="96" target="89">
                    <mxGeometry relative="1" as="geometry"/>
                </mxCell>
                <mxCell id="96" value="查询陪护7天内未审核的附件" style="whiteSpace=wrap;html=1;dashed=0;strokeColor=#d79b00;fillColor=#ffe6cc;" vertex="1" parent="1">
                    <mxGeometry x="760" y="2058" width="162.5" height="60" as="geometry"/>
                </mxCell>
                <mxCell id="105" value="" style="edgeStyle=orthogonalEdgeStyle;html=1;" edge="1" parent="1" source="100" target="102">
                    <mxGeometry relative="1" as="geometry"/>
                </mxCell>
                <mxCell id="100" value="查询陪护人基本信息" style="whiteSpace=wrap;html=1;dashed=0;strokeColor=#d79b00;fillColor=#ffe6cc;" vertex="1" parent="1">
                    <mxGeometry x="760" y="2388" width="162.5" height="60" as="geometry"/>
                </mxCell>
                <mxCell id="106" value="Y" style="edgeStyle=orthogonalEdgeStyle;html=1;" edge="1" parent="1" source="102" target="103">
                    <mxGeometry relative="1" as="geometry"/>
                </mxCell>
                <mxCell id="117" value="Y" style="edgeStyle=orthogonalEdgeStyle;html=1;" edge="1" parent="1" source="102" target="109">
                    <mxGeometry relative="1" as="geometry"/>
                </mxCell>
                <mxCell id="102" value="健康码为绿码？" style="rhombus;whiteSpace=wrap;html=1;dashed=0;strokeColor=#d79b00;fillColor=#ffe6cc;" vertex="1" parent="1">
                    <mxGeometry x="753.75" y="2548" width="175" height="80" as="geometry"/>
                </mxCell>
                <mxCell id="107" value="Y" style="edgeStyle=orthogonalEdgeStyle;html=1;" edge="1" parent="1" source="103" target="104">
                    <mxGeometry relative="1" as="geometry"/>
                </mxCell>
                <mxCell id="115" value="Y" style="edgeStyle=orthogonalEdgeStyle;html=1;" edge="1" parent="1" source="103" target="110">
                    <mxGeometry relative="1" as="geometry"/>
                </mxCell>
                <mxCell id="103" value="行程码为绿码？" style="rhombus;whiteSpace=wrap;html=1;dashed=0;strokeColor=#d79b00;fillColor=#ffe6cc;" vertex="1" parent="1">
                    <mxGeometry x="753.75" y="2728" width="175" height="80" as="geometry"/>
                </mxCell>
                <mxCell id="113" value="N" style="edgeStyle=orthogonalEdgeStyle;html=1;" edge="1" parent="1" source="104" target="112">
                    <mxGeometry relative="1" as="geometry"/>
                </mxCell>
                <mxCell id="114" value="Y" style="edgeStyle=orthogonalEdgeStyle;html=1;" edge="1" parent="1" source="104" target="111">
                    <mxGeometry relative="1" as="geometry"/>
                </mxCell>
                <mxCell id="104" value="到过高风险地区？" style="rhombus;whiteSpace=wrap;html=1;dashed=0;strokeColor=#d79b00;fillColor=#ffe6cc;" vertex="1" parent="1">
                    <mxGeometry x="753.75" y="2908" width="175" height="80" as="geometry"/>
                </mxCell>
                <mxCell id="109" value="其他&amp;lt;陪护人健康码异常&amp;gt;" style="html=1;dashed=0;whitespace=wrap;shape=mxgraph.dfd.start;fillColor=#d5e8d4;strokeColor=#82b366;" vertex="1" parent="1">
                    <mxGeometry x="1002.5" y="2573" width="210" height="30" as="geometry"/>
                </mxCell>
                <mxCell id="110" value="其他&amp;lt;陪护人行程码异常&amp;gt;" style="html=1;dashed=0;whitespace=wrap;shape=mxgraph.dfd.start;fillColor=#d5e8d4;strokeColor=#82b366;" vertex="1" parent="1">
                    <mxGeometry x="1002.5" y="2753" width="210" height="30" as="geometry"/>
                </mxCell>
                <mxCell id="111" value="其他&amp;lt;陪护人到过高风险地区&amp;gt;" style="html=1;dashed=0;whitespace=wrap;shape=mxgraph.dfd.start;fillColor=#d5e8d4;strokeColor=#82b366;" vertex="1" parent="1">
                    <mxGeometry x="1002.5" y="2933" width="210" height="30" as="geometry"/>
                </mxCell>
                <mxCell id="112" value="无核酸检测结果&amp;lt;陪护无任何有效材料&amp;gt;" style="html=1;dashed=0;whitespace=wrap;shape=mxgraph.dfd.start;fillColor=#d5e8d4;strokeColor=#82b366;" vertex="1" parent="1">
                    <mxGeometry x="736.25" y="3098" width="210" height="30" as="geometry"/>
                </mxCell>
                <mxCell id="131" value="=0" style="edgeStyle=orthogonalEdgeStyle;html=1;" edge="1" parent="1" source="118" target="130">
                    <mxGeometry relative="1" as="geometry"/>
                </mxCell>
                <mxCell id="134" value="&amp;gt;=1" style="edgeStyle=orthogonalEdgeStyle;html=1;exitX=0.5;exitY=1;exitDx=0;exitDy=0;entryX=0;entryY=0.5;entryDx=0;entryDy=0;" edge="1" parent="1" source="118" target="57">
                    <mxGeometry relative="1" as="geometry"/>
                </mxCell>
                <mxCell id="118" value="在院记录数量" style="rhombus;whiteSpace=wrap;html=1;dashed=0;strokeColor=#d79b00;fillColor=#ffe6cc;" vertex="1" parent="1">
                    <mxGeometry x="778" y="780" width="175" height="80" as="geometry"/>
                </mxCell>
                <mxCell id="130" value="注销&amp;lt;患者所有住院记录已出院&amp;gt;" style="html=1;dashed=0;whitespace=wrap;shape=mxgraph.dfd.start;fillColor=#d5e8d4;strokeColor=#82b366;" vertex="1" parent="1">
                    <mxGeometry x="513" y="805" width="210" height="30" as="geometry"/>
                </mxCell>
            </root>
        </mxGraphModel>
    </diagram>
</mxfile>